PathFileType	4	(X/Y/Z)	RBDS018static.trc
DataRate	CameraRate	NumFrames	NumMarkers	Units	OrigDataRate	OrigDataStartFrame	OrigNumFrames
150.000000	150.000000	4	48	mm	150.000000	112	150
Frame#	Time	L.Ankle			L.Ankle.Medial			L.ASIS			L.GTR			L.Heel.Bottom			L.Heel.Lateral			L.Heel.Top			L.HF			L.Iliac.Crest			L.Knee			L.Knee.Medial			L.MT1			L.MT2			L.MT5			L.PSIS			L.Shank.Bottom.Lateral			L.Shank.Bottom.Medial			L.Shank.Top.Lateral			L.Shank.Top.Medial			L.Thigh.Bottom.Lateral			L.Thigh.Bottom.Medial			L.Thigh.Top.Lateral			L.Thigh.Top.Medial			L.TT			R.Ankle			R.Ankle.Medial			R.ASIS			R.GTR			R.Heel.Bottom			R.Heel.Lateral			R.Heel.Top			R.HF			R.Iliac.Crest			R.Knee			R.Knee.Medial			R.MT1			R.MT2			R.MT5			R.PSIS			R.Shank.Bottom.Lateral			R.Shank.Bottom.Medial			R.Shank.Top.Lateral			R.Shank.Top.Medial			R.Thigh.Bottom.Lateral			R.Thigh.Bottom.Medial			R.Thigh.Top.Lateral			R.Thigh.Top.Medial			R.TT			
		X1	Y1	Z1	X2	Y2	Z2	X3	Y3	Z3	X4	Y4	Z4	X5	Y5	Z5	X6	Y6	Z6	X7	Y7	Z7	X8	Y8	Z8	X9	Y9	Z9	X10	Y10	Z10	X11	Y11	Z11	X12	Y12	Z12	X13	Y13	Z13	X14	Y14	Z14	X15	Y15	Z15	X16	Y16	Z16	X17	Y17	Z17	X18	Y18	Z18	X19	Y19	Z19	X20	Y20	Z20	X21	Y21	Z21	X22	Y22	Z22	X23	Y23	Z23	X24	Y24	Z24	X25	Y25	Z25	X26	Y26	Z26	X27	Y27	Z27	X28	Y28	Z28	X29	Y29	Z29	X30	Y30	Z30	X31	Y31	Z31	X32	Y32	Z32	X33	Y33	Z33	X34	Y34	Z34	X35	Y35	Z35	X36	Y36	Z36	X37	Y37	Z37	X38	Y38	Z38	X39	Y39	Z39	X40	Y40	Z40	X41	Y41	Z41	X42	Y42	Z42	X43	Y43	Z43	X44	Y44	Z44	X45	Y45	Z45	X46	Y46	Z46	X47	Y47	Z47	X48	Y48	Z48	

113	0.7466666666666667	710.9105834960938	105.475456237793	1044.263671875	737.8701171875	116.4930801391602	1127.940795898438	857.06689453125	1074.351440429688	1127.660522460938	793.4072875976563	971.0948486328125	1048.218383789063	641.068603515625	42.06704330444336	1087.29736328125	671.8565063476563	53.97504425048828	1040.948608398438	650.7803955078125	91.86493682861328	1085.171630859375	732.5386962890625	497.8829345703125	1030.954345703125	780.4773559570313	1141.718872070313	1080.912719726563	745.5167846679688	564.9996948242188	1042.165893554688	746.0146484375	531.4004516601563	1170.12060546875	863.5791015625	56.37763595581055	1128.308715820313	874.1149291992188	69.42691040039063	1074.67822265625	839.4678344726563	54.00983047485352	1014.861877441406	678.4718017578125	1080.326538085938	1182.231079101563	689.4750366210938	202.4203948974609	1034.385131835938	659.8223266601563	201.4400482177734	1076.214111328125	679.5148315429688	282.2011413574219	1024.395751953125	650.0581665039063	285.4847412109375	1068.678588867188	746.6312255859375	675.52587890625	1032.215454101563	690.2740478515625	681.1983032226563	1078.7421875	752.9500122070313	784.9328002929688	1027.90380859375	699.8385620117188	789.9536743164063	1073.413330078125	790.1317749023438	463.9191284179688	1085.968505859375	710.2318115234375	107.0383377075195	1414.4794921875	733.181396484375	123.3880157470703	1330.62744140625	852.1946411132813	1075.844360351563	1361.350952148438	789.7352294921875	970.5665283203125	1427.478149414063	639.6240844726563	42.90133285522461	1374.4560546875	662.7028198242188	59.89652633666992	1410.493530273438	650.9618530273438	92.82070922851563	1373.427612304688	742.201904296875	490.7502746582031	1437.608520507813	777.21044921875	1142.91357421875	1387.194946289063	743.5029907226563	555.12939453125	1431.224609375	742.099853515625	533.2537231445313	1299.373657226563	861.5641479492188	59.84063339233398	1326.349365234375	875.050048828125	69.61686706542969	1377.251098632813	838.1737060546875	55.87739181518555	1437.662231445313	677.1917724609375	1084.294555664063	1291.335205078125	705.9060668945313	211.6742095947266	1436.059936523438	662.5658569335938	214.6795501708984	1400.813354492188	699.3826904296875	291.9788208007813	1448.99853515625	658.3320922851563	293.9537048339844	1413.817138671875	749.05712890625	668.7052001953125	1442.41845703125	689.9292602539063	674.4613647460938	1400.12744140625	753.5648193359375	779.2884521484375	1447.615112304688	698.1799926757813	783.9627685546875	1407.63916015625	795.2348022460938	468.281494140625	1386.999267578125	
114	0.7533333333333334	710.9277954101563	105.480827331543	1044.268310546875	737.8660888671875	116.4905090332031	1127.931762695313	857.0189819335938	1074.377319335938	1127.360595703125	793.4122924804688	971.088623046875	1048.209350585938	641.0696411132813	42.07074737548828	1087.292724609375	671.8583984375	53.97478866577148	1040.946899414063	650.7763061523438	91.86470031738281	1085.177612304688	732.5326538085938	497.88720703125	1030.950805664063	780.48681640625	1141.707763671875	1080.922119140625	745.5375366210938	564.999755859375	1042.165405273438	746.0250244140625	531.4159545898438	1170.13134765625	863.5866088867188	56.37855529785156	1128.302124023438	874.1124267578125	69.43662261962891	1074.685302734375	839.46923828125	54.01222991943359	1014.862609863281	678.5040283203125	1080.323120117188	1182.242065429688	689.4779663085938	202.4210357666016	1034.389892578125	659.8145141601563	201.4503479003906	1076.213012695313	679.50732421875	282.2085266113281	1024.400512695313	650.0574951171875	285.4905090332031	1068.688354492188	746.6416625976563	675.5202026367188	1032.205444335938	690.2947387695313	681.1937866210938	1078.74267578125	752.9617919921875	784.9318237304688	1027.890869140625	699.8416137695313	789.9419555664063	1073.410400390625	790.1382446289063	463.9144592285156	1085.964233398438	710.2185668945313	107.0407104492188	1414.48291015625	733.1799926757813	123.3995208740234	1330.63134765625	852.2147827148438	1075.839111328125	1361.347045898438	789.765625	970.567626953125	1427.485107421875	639.627685546875	42.9103889465332	1374.458251953125	662.6942749023438	59.9018440246582	1410.503173828125	650.9595336914063	92.82176971435547	1373.448486328125	742.2256469726563	490.7476806640625	1437.606811523438	777.2320556640625	1142.915161132813	1387.189331054688	743.511474609375	555.1370239257813	1431.233154296875	742.10009765625	533.2645263671875	1299.361938476563	861.5586547851563	59.84507369995117	1326.346069335938	875.0565795898438	69.61407470703125	1377.259765625	838.1726684570313	55.88581848144531	1437.654907226563	677.2103881835938	1084.294311523438	1291.339233398438	705.9058227539063	211.68115234375	1436.06201171875	662.573486328125	214.6828308105469	1400.8232421875	699.3984985351563	291.975830078125	1449.00634765625	658.3413696289063	293.9541931152344	1413.826293945313	749.1756591796875	668.766845703125	1442.75634765625	689.95068359375	674.4619750976563	1400.11669921875	753.5799560546875	779.2870483398438	1447.610473632813	698.191650390625	783.9708862304688	1407.632690429688	795.2464599609375	468.2745056152344	1386.995849609375	
115	0.76	710.910400390625	105.4737930297852	1044.267456054688	737.8629760742188	116.4906692504883	1127.930541992188	857.1031494140625	1074.343994140625	1127.65869140625	793.4328002929688	971.0806274414063	1048.2080078125	641.0643920898438	42.07309722900391	1087.30078125	671.8566284179688	53.98007202148438	1040.94775390625	650.7781372070313	91.87744903564453	1085.16748046875	732.5403442382813	497.8878173828125	1030.942993164063	780.5059814453125	1141.702270507813	1080.920532226563	745.5518188476563	564.9974365234375	1042.156982421875	746.0267944335938	531.4183959960938	1170.128051757813	863.5887451171875	56.37674331665039	1128.307983398438	874.1281127929688	69.43489837646484	1074.688842773438	839.47900390625	54.01610565185547	1014.864379882813	678.51953125	1080.325317382813	1182.24365234375	689.470703125	202.4277496337891	1034.385864257813	659.820068359375	201.4580078125	1076.215698242188	679.5092163085938	282.2149658203125	1024.404174804688	650.0537719726563	285.4920654296875	1068.693969726563	746.65673828125	675.5147094726563	1032.204833984375	690.3150024414063	681.1869506835938	1078.743774414063	752.9750366210938	784.9213256835938	1027.888427734375	699.8607177734375	789.9384765625	1073.394775390625	790.15380859375	463.9259643554688	1085.960815429688	710.2291870117188	107.0400390625	1414.480590820313	733.1788330078125	123.3926391601563	1330.633422851563	852.2449340820313	1075.837890625	1361.339721679688	789.8043212890625	970.5599365234375	1427.466552734375	639.6239013671875	42.91305160522461	1374.457763671875	662.694580078125	59.89347457885742	1410.498413085938	650.9445190429688	92.83169555664063	1373.430908203125	742.239501953125	490.7487182617188	1437.60693359375	777.2762451171875	1142.883911132813	1387.183959960938	743.5339965820313	555.12841796875	1431.23046875	742.1124267578125	533.254150390625	1299.36181640625	861.5652465820313	59.83653259277344	1326.344848632813	875.0462036132813	69.61272430419922	1377.263427734375	838.17578125	55.88288116455078	1437.65771484375	677.2376098632813	1084.291870117188	1291.342895507813	705.93017578125	211.673828125	1436.063720703125	662.5771484375	214.6900939941406	1400.834350585938	699.4185791015625	291.9790344238281	1449.0126953125	658.353759765625	293.9590454101563	1413.834716796875	749.0991821289063	668.6988525390625	1442.405517578125	689.9728393554688	674.4619140625	1400.11279296875	753.6160888671875	779.285400390625	1447.600830078125	698.2249145507813	783.955322265625	1407.630981445313	795.25634765625	468.2795715332031	1387.001220703125	
116	0.7666666666666667	710.9131469726563	105.4949417114258	1044.255004882813	737.865234375	116.4900512695313	1127.9228515625	857.1221313476563	1074.34033203125	1127.6298828125	793.4522094726563	971.0889282226563	1048.196899414063	641.0671997070313	42.07627487182617	1087.289306640625	671.8571166992188	53.98363876342773	1040.954223632813	650.7745971679688	91.87425994873047	1085.166259765625	732.5518188476563	497.8909606933594	1030.935180664063	780.5301513671875	1141.700561523438	1080.897216796875	745.5567626953125	565.0089111328125	1042.153198242188	746.058837890625	531.4337768554688	1170.115112304688	863.592529296875	56.38007354736328	1128.293334960938	874.12109375	69.44536590576172	1074.675659179688	839.465576171875	54.01868057250977	1014.862121582031	678.5447387695313	1080.334106445313	1182.245971679688	689.4706420898438	202.423583984375	1034.384399414063	659.82421875	201.4578247070313	1076.212158203125	679.5134887695313	282.2140197753906	1024.405395507813	650.0543823242188	285.4957275390625	1068.692138671875	746.6802368164063	675.5151977539063	1032.193115234375	690.3326416015625	681.1893920898438	1078.745483398438	752.9905395507813	784.9217529296875	1027.8798828125	699.874755859375	789.9398193359375	1073.385375976563	790.16064453125	463.9153137207031	1085.959106445313	710.2197265625	107.0354919433594	1414.47265625	733.1854858398438	123.4066925048828	1330.629638671875	852.2708740234375	1075.8291015625	1361.330322265625	789.8443603515625	970.5693969726563	1427.463256835938	639.621337890625	42.92170333862305	1374.457275390625	662.6988525390625	59.89620971679688	1410.506713867188	650.9520263671875	92.83982086181641	1373.433959960938	742.2662353515625	490.75146484375	1437.603881835938	777.30419921875	1142.89453125	1387.19970703125	743.5576171875	555.1306762695313	1431.22412109375	742.1325073242188	533.2581787109375	1299.370361328125	861.5678100585938	59.84118270874023	1326.339721679688	875.0467529296875	69.62279510498047	1377.261474609375	838.17529296875	55.88285446166992	1437.652465820313	677.2732543945313	1084.3115234375	1291.349731445313	705.9421997070313	211.6807250976563	1436.06494140625	662.5886840820313	214.6950836181641	1400.852172851563	699.44580078125	291.9800109863281	1449.010375976563	658.3687744140625	293.9659118652344	1413.843994140625	749.1172485351563	668.7086791992188	1442.394653320313	689.9931030273438	674.4637451171875	1400.13037109375	753.6431884765625	779.2886352539063	1447.591796875	698.240478515625	783.9614868164063	1407.617431640625	795.2681274414063	468.2810668945313	1386.996948242188	
